<?xml version="1.0" encoding="utf-8"?>
<!-- Generator: Adobe Illustrator 16.0.0, SVG Export Plug-In . SVG Version: 6.00 Build 0)  -->
<!DOCTYPE svg PUBLIC "-//W3C//DTD SVG 1.1//EN" "http://www.w3.org/Graphics/SVG/1.1/DTD/svg11.dtd">
<svg version="1.1" id="图层_1" xmlns="http://www.w3.org/2000/svg" xmlns:xlink="http://www.w3.org/1999/xlink" x="0px" y="0px"
	 width="32px" height="32px" viewBox="0 0 32 32" enable-background="new 0 0 32 32" xml:space="preserve">
<path fill="#F7F7F7" d="M16.043,9.055L8.81,1.602l2.713-0.934l6.327,6.52L16.043,9.055z"/>
<path fill="#E4E4E4" d="M7.903,17.442L0.67,9.988l8.14-8.386l7.233,7.453L7.903,17.442z"/>
<path fill="#FFB13B" d="M21.47,9.988L10.616,21.169l-1.359-1.395l0.006-0.006l10.847-11.18L21.47,9.988z"/>
<path fill="#00A6FF" d="M9.257,19.774L7.45,17.908l0.453-0.466l8.14-8.387l1.807-1.867l0.453-0.467l1.807,1.867L9.263,19.769
	L9.257,19.774z M21.916,30.948c-0.479,0.499-1.271,0.516-1.77,0.037c-0.013-0.013-0.025-0.024-0.037-0.037l-9.493-9.779L21.47,9.988
	l9.493,9.78c0.5,0.521,0.5,1.345,0,1.867L21.916,30.948z"/>
<path fill="#2187E9" d="M21.916,30.948l9.047-9.313c0.5-0.522,0.5-1.346,0-1.867l-1.354-1.396l-0.015,0.021l0.038,0.039
	c0.5,0.521,0.5,1.345,0,1.866l-9.05,9.316c-0.421,0.438-1.097,0.511-1.601,0.17l1.127,1.163c0.479,0.499,1.271,0.516,1.771,0.037
	C21.893,30.973,21.904,30.961,21.916,30.948z"/>
<path fill="#FFE45C" d="M19.427,12.092l2.043-2.104l-1.36-1.4l-2.061,2.125L19.427,12.092z"/>
<path fill="#31C4FF" d="M20.109,8.588l-1.807-1.867L17.85,7.188l-1.636,1.69l1.835,1.835L20.109,8.588z M28.647,21.313l0.982-1.012
	c0.5-0.521,0.5-1.345,0-1.867l-0.038-0.038l0.012-0.021l1.359,1.393l-9.493-9.78l-2.043,2.104L28.647,21.313z"/>
<path fill="#00A6FF" d="M29.604,18.376l-0.015,0.021l0.038,0.038c0.5,0.522,0.5,1.346,0,1.867l-0.982,1.012l1.333,1.333l0.985-1.011
	c0.5-0.522,0.5-1.346,0-1.867l-1.354-1.396L29.604,18.376z"/>
<path fill="#E4E4E4" d="M15.058,8.04l0.985,1.015l1.807-1.867l-0.985-1.015L16.85,6.188L15.058,8.04z"/>
<path fill="#CFCFCF" d="M16.043,9.055L15.058,8.04l-0.015,0.015l-8.125,8.371l0.985,1.016L16.043,9.055z"/>
<path fill="#F6FAFD" d="M24.766,20.95c-0.73,0.172-1.411,1.301-1.476,2.014c-0.063,0.713,0.476,1.15,1.205,0.979
	c0.654-0.154,1.253-0.753,1.819-1.445c0.595-0.596,0.73-1.424,0.303-1.852S25.36,20.354,24.766,20.95z"/>
<path fill="#F6FAFD" d="M23.81,19.4c-0.356,0.028-0.809,0.716-0.898,1.083s0.127,0.641,0.483,0.611
	c0.357-0.027,0.719-0.349,0.809-0.716c0.01-0.038,0.016-0.075,0.385-0.2c0.5-0.502,0.877-0.938,0.518-1.297
	C24.745,18.522,24.047,18.637,23.81,19.4z"/>
<path d="M25.148,12.822l1.334,1.374l-0.957,0.928l-1.334-1.374L25.148,12.822z"/>
<path d="M22.397,31.413l9.042-9.316c0.748-0.781,0.748-2.012,0-2.793l-3.655-3.769l-0.956,0.933l3.655,3.767
	c0.25,0.262,0.25,0.673,0,0.934l-9.042,9.316c-0.223,0.234-0.595,0.245-0.83,0.022c-0.008-0.007-0.016-0.015-0.022-0.022
	l-9.043-9.32l9.924-10.223l1.476,1.526l0.957-0.933L18.781,6.26c-0.25-0.261-0.664-0.271-0.926-0.022l-5.856-6.037
	c-0.18-0.185-0.45-0.25-0.695-0.167L8.592,0.968C8.493,1.002,8.403,1.06,8.329,1.134L0.19,9.521
	C0.069,9.646,0.003,9.813,0.003,9.988c0,0.005,0,0.009,0,0.014v18.667h1.334V11.63l3.521,3.628l0.957-0.929L1.599,9.986l7.209-7.428
	l1.383,1.426l0.958-0.929L10.015,1.89l1.322-0.453L16.92,7.19l-0.879,0.906l-3.776-3.895l-0.957,0.934l3.806,3.921l-7.21,7.425
	l-1.422-1.467l-0.957,0.929l1.45,1.495c-0.251,0.258-0.251,0.669,0,0.928l12.658,13.047c0.734,0.764,1.949,0.787,2.713,0.053
	C22.363,31.449,22.381,31.432,22.397,31.413L22.397,31.413z M10.616,20.209l-0.428-0.44l9.923-10.224l0.427,0.441L10.616,20.209z
	 M8.38,17.905l9.923-10.224l0.879,0.906L9.261,18.812L8.38,17.905z M1.337,30.001v1.334H0.003v-1.334H1.337z"/>
</svg>
